<?xml version="1.0" encoding="utf-8"?>
<!-- Generator: Adobe Illustrator 21.1.0, SVG Export Plug-In . SVG Version: 6.00 Build 0)  -->
<svg version="1.1" id="Layer_1" xmlns="http://www.w3.org/2000/svg" xmlns:xlink="http://www.w3.org/1999/xlink" x="0px" y="0px"
	 viewBox="0 0 16 16" style="enable-background:new 0 0 16 16;" xml:space="preserve">
<style type="text/css">
	.st0{fill:#FEFEFE;}
	.st1{fill:#010101;}
</style>
<g>
	<path class="st0" d="M11.3,136.3c-39.7,0-79.4-0.2-119.1,0.2c-6.3,0.1-7.7-1.4-7.7-7.7c0.2-79.4,0.2-158.8,0-238.1
		c0-6.3,1.4-7.7,7.7-7.7c79.4,0.2,158.8,0.2,238.1,0c6.3,0,7.7,1.4,7.7,7.7c-0.2,79.4-0.2,158.8,0,238.1c0,6.3-1.4,7.7-7.7,7.7
		C90.7,136.2,51,136.3,11.3,136.3z"/>
	<path d="M40.4,27.3c-0.2,2,0,6.7-1.2,11.1c-4.7,17.8-4,35.3-0.1,53.2c4,18.1-0.4,29.1-13.4,37c-13.7,8.3-25.7,3-37-5.2
		c-9.9-7.2-18.4-15.7-23.7-26.9c-6.7-14.3-16.9-25.5-30.1-34.3c-10.4-6.9-21.4-13.4-30.3-22c-18.4-17.9-21-37.6-3.3-55.6
		c9-9.2,20.1-13.1,31.9-7.8c18.8,8.3,37.2,8.8,57.2,4.6C17.5-24.3,40.6-3.1,40.4,27.3z"/>
	<path class="st1" d="M85.5-77.4c-1.2,22.6-30.1,51.7-52.7,53.1c-13.4,0.9-21.3-7.5-19.7-20.8c2.6-21.8,28.5-48.3,50.3-51.5
		C77.9-98.8,86.2-91.6,85.5-77.4z"/>
	<path d="M126.4-27.7c0,23-36.9,55.5-60,52.8c-11.5-1.4-17.6-9.5-15.7-21c3.6-22.6,32.8-48.3,55.5-48.9
		C118.3-45.2,126.4-38.4,126.4-27.7z"/>
	<path class="st1" d="M75.8,88.3C56,88.6,46.8,75,55.2,59.1c9.6-18.4,25.7-28.2,46.2-29.6c18-1.2,27.1,13,18.8,29
		C110.6,77,94.2,85.8,75.8,88.3z"/>
	<path class="st1" d="M-47.9-59.9C-47.7-78.1-32-98-14.5-102.2c15.3-3.6,26.6,5.4,26.5,21C11.7-63.9-3.6-44-20.4-39.1
		C-36.2-34.6-48-43.5-47.9-59.9z"/>
</g>
</svg>
