<?xml version="1.0" encoding="utf-8"?>
<!-- Generator: Adobe Illustrator 21.1.0, SVG Export Plug-In . SVG Version: 6.00 Build 0)  -->
<svg version="1.1" id="Layer_1" xmlns="http://www.w3.org/2000/svg" xmlns:xlink="http://www.w3.org/1999/xlink" x="0px" y="0px"
	 viewBox="0 0 250 250" style="enable-background:new 0 0 250 250;" xml:space="preserve">
<g>
	<path d="M0,228.7c11-10.9,21.9-21.9,33.1-32.6c5.5-5.3,9.7-11.5,19.8-10.9c3.9,0.2,10.8-9.5,12.1-15.5c3-14.6,3.6-29.7,4.9-44.7
		c0.5-5.3,0.1-10.7,0.1-17.5c6.4,0.8,12,1.5,17.8,2.2c0.4,5.4,0.4,10,1.3,14.5c4.9,26.4,31.5,44.9,57.3,37.4
		c41.1-11.9,68.3-39.9,82-80c6.2-17.9,1.3-35-13.1-48.2c-14.4-13.2-31.1-15.4-49.2-9.2c-6.3,2.2-12.3,5.1-19.1,8
		c-2.4-5.1-4.8-10.3-7.3-15.4c19.8-17,51.6-20.1,75.2-7.4c23.5,12.7,37.6,39,34.7,64.8c-5.4,48.2-59.8,103-107.9,107.7
		c-16.2,1.6-32.6,0.2-48.8,1.7c-7.2,0.6-14.2,4.5-21,7.5c-2.5,1.1-5.8,3.8-6,6c-2.6,25.4-27.5,32.9-40.1,50.1
		c-1.3,1.8-7.8,2.4-9.6,0.8c-6-4.9-10.9-11.1-16.2-16.8C0,230.4,0,229.6,0,228.7z"/>
	<path d="M41.7,39.5c5.3-21.4,16.1-32,36.2-36.4c12.8,35.3,21.5,44,55.1,54.1c-4.7,19.2-16.3,31.2-36.4,36.6
		C89.4,64.6,72.5,45.4,41.7,39.5z"/>
	<path d="M89.4,2.2c25.4,1.8,42.1,18.5,43.3,42.4C111.6,45.1,92.9,27.1,89.4,2.2z"/>
	<path d="M84.9,93.8C59,92,42.2,75.1,41.7,51.2C63.1,51.7,81.2,69.2,84.9,93.8z"/>
</g>
</svg>
